<?xml version="1.0" encoding="UTF-8" standalone="no"?><!DOCTYPE svg PUBLIC "-//W3C//DTD SVG 1.1//EN" "http://www.w3.org/Graphics/SVG/1.1/DTD/svg11.dtd"><svg width="100%" height="100%" viewBox="0 0 2134 2134" version="1.1" xmlns="http://www.w3.org/2000/svg" xmlns:xlink="http://www.w3.org/1999/xlink" xml:space="preserve" xmlns:serif="http://www.serif.com/" style="fill-rule:evenodd;clip-rule:evenodd;stroke-linejoin:round;stroke-miterlimit:2;"><rect x="-1.705" y="-0.866" width="2152.03" height="2149.2" style="fill:#91aa06;"/><path d="M246.903,1076.73l23.765,-2.078c1.126,9.524 3.745,17.337 7.857,23.441c4.112,6.103 10.497,11.038 19.155,14.804c8.657,3.766 18.397,5.649 29.219,5.649c9.61,0 18.094,-1.428 25.453,-4.285c7.359,-2.857 12.835,-6.775 16.428,-11.753c3.593,-4.978 5.389,-10.411 5.389,-16.298c0,-5.974 -1.731,-11.19 -5.194,-15.649c-3.463,-4.458 -9.177,-8.203 -17.142,-11.233c-5.108,-1.991 -16.406,-5.086 -33.894,-9.285c-17.489,-4.199 -29.739,-8.16 -36.752,-11.882c-9.09,-4.762 -15.865,-10.671 -20.324,-17.727c-4.458,-7.056 -6.687,-14.956 -6.687,-23.7c-0,-9.61 2.727,-18.592 8.181,-26.947c5.454,-8.354 13.419,-14.696 23.895,-19.025c10.475,-4.328 22.12,-6.493 34.933,-6.493c14.112,0 26.557,2.273 37.336,6.818c10.779,4.545 19.068,11.233 24.869,20.064c5.8,8.831 8.917,18.83 9.35,29.998l-24.155,1.819c-1.298,-12.034 -5.692,-21.125 -13.181,-27.272c-7.489,-6.147 -18.549,-9.22 -33.18,-9.22c-15.237,-0 -26.341,2.792 -33.31,8.376c-6.969,5.584 -10.454,12.315 -10.454,20.194c0,6.839 2.467,12.467 7.402,16.882c4.848,4.415 17.51,8.939 37.985,13.571c20.475,4.632 34.522,8.679 42.141,12.142c11.082,5.108 19.263,11.58 24.544,19.415c5.281,7.835 7.922,16.86 7.922,27.076c-0,10.13 -2.9,19.675 -8.701,28.635c-5.801,8.961 -14.133,15.93 -24.999,20.908c-10.865,4.978 -23.094,7.467 -36.686,7.467c-17.229,0 -31.665,-2.51 -43.31,-7.532c-11.644,-5.021 -20.778,-12.575 -27.401,-22.661c-6.623,-10.086 -10.108,-21.492 -10.454,-34.219Z" style="fill-rule:nonzero;"/><path d="M487.281,1137.89l-73.763,-190.38l27.271,-0l49.478,138.304c3.983,11.082 7.316,21.471 10,31.168c2.943,-10.389 6.363,-20.778 10.259,-31.168l51.426,-138.304l25.713,-0l-74.542,190.38l-25.842,-0Z" style="fill-rule:nonzero;"/><path d="M699.348,1063.22l-0,-22.336l80.645,-0.13l-0,70.646c-12.38,9.869 -25.15,17.293 -38.31,22.271c-13.159,4.978 -26.665,7.467 -40.517,7.467c-18.701,0 -35.691,-4.004 -50.972,-12.012c-15.28,-8.008 -26.816,-19.588 -34.608,-34.739c-7.792,-15.15 -11.688,-32.076 -11.688,-50.776c-0,-18.527 3.874,-35.821 11.623,-51.881c7.748,-16.059 18.895,-27.985 33.44,-35.777c14.544,-7.792 31.297,-11.688 50.257,-11.688c13.765,0 26.211,2.23 37.336,6.688c11.125,4.459 19.847,10.671 26.167,18.636c6.32,7.965 11.125,18.354 14.415,31.167l-22.726,6.233c-2.857,-9.696 -6.407,-17.315 -10.649,-22.856c-4.242,-5.541 -10.302,-9.978 -18.181,-13.311c-7.878,-3.333 -16.622,-4.999 -26.232,-4.999c-11.515,-0 -21.471,1.753 -29.869,5.259c-8.398,3.506 -15.172,8.116 -20.324,13.83c-5.151,5.714 -9.155,11.991 -12.012,18.831c-4.848,11.774 -7.272,24.544 -7.272,38.309c-0,16.969 2.922,31.168 8.765,42.596c5.844,11.428 14.35,19.912 25.519,25.453c11.168,5.541 23.029,8.311 35.582,8.311c10.909,0 21.558,-2.099 31.947,-6.298c10.389,-4.199 18.267,-8.679 23.635,-13.441l-0,-35.453l-55.971,0Z" style="fill-rule:nonzero;"/><rect x="878.949" y="1057.25" width="71.815" height="23.505" style="fill-rule:nonzero;"/><path d="M1044.91,1076.73l23.765,-2.078c1.125,9.524 3.744,17.337 7.856,23.441c4.113,6.103 10.498,11.038 19.155,14.804c8.658,3.766 18.398,5.649 29.219,5.649c9.61,0 18.095,-1.428 25.454,-4.285c7.359,-2.857 12.835,-6.775 16.427,-11.753c3.593,-4.978 5.39,-10.411 5.39,-16.298c-0,-5.974 -1.732,-11.19 -5.195,-15.649c-3.463,-4.458 -9.177,-8.203 -17.142,-11.233c-5.108,-1.991 -16.406,-5.086 -33.894,-9.285c-17.488,-4.199 -29.739,-8.16 -36.751,-11.882c-9.091,-4.762 -15.865,-10.671 -20.324,-17.727c-4.459,-7.056 -6.688,-14.956 -6.688,-23.7c-0,-9.61 2.727,-18.592 8.181,-26.947c5.455,-8.354 13.42,-14.696 23.895,-19.025c10.476,-4.328 22.12,-6.493 34.933,-6.493c14.112,0 26.558,2.273 37.336,6.818c10.779,4.545 19.069,11.233 24.869,20.064c5.801,8.831 8.917,18.83 9.35,29.998l-24.154,1.819c-1.299,-12.034 -5.693,-21.125 -13.181,-27.272c-7.489,-6.147 -18.549,-9.22 -33.181,-9.22c-15.237,-0 -26.34,2.792 -33.31,8.376c-6.969,5.584 -10.454,12.315 -10.454,20.194c0,6.839 2.468,12.467 7.403,16.882c4.848,4.415 17.51,8.939 37.985,13.571c20.475,4.632 34.522,8.679 42.14,12.142c11.082,5.108 19.263,11.58 24.545,19.415c5.281,7.835 7.921,16.86 7.921,27.076c0,10.13 -2.9,19.675 -8.701,28.635c-5.8,8.961 -14.133,15.93 -24.998,20.908c-10.866,4.978 -23.094,7.467 -36.687,7.467c-17.228,0 -31.665,-2.51 -43.309,-7.532c-11.645,-5.021 -20.778,-12.575 -27.401,-22.661c-6.623,-10.086 -10.108,-21.492 -10.454,-34.219Z" style="fill-rule:nonzero;"/><path d="M1315.81,1190.75l-0,-67.529c-3.636,5.108 -8.723,9.35 -15.259,12.727c-6.537,3.376 -13.484,5.064 -20.843,5.064c-16.363,0 -30.453,-6.536 -42.271,-19.609c-11.817,-13.073 -17.726,-30.994 -17.726,-53.763c-0,-13.853 2.402,-26.276 7.207,-37.271c4.805,-10.995 11.775,-19.328 20.908,-24.999c9.134,-5.671 19.155,-8.506 30.064,-8.506c17.055,-0 30.474,7.186 40.257,21.557l0,-18.44l21.038,-0l0,190.769l-23.375,0Zm-72.074,-122.201c-0,17.748 3.722,31.059 11.168,39.933c7.445,8.874 16.363,13.311 26.752,13.311c9.956,-0 18.527,-4.221 25.713,-12.662c7.185,-8.441 10.778,-21.276 10.778,-38.505c0,-18.354 -3.787,-32.162 -11.363,-41.426c-7.575,-9.264 -16.471,-13.895 -26.687,-13.895c-10.129,-0 -18.722,4.307 -25.778,12.921c-7.055,8.614 -10.583,22.055 -10.583,40.323Z" style="fill-rule:nonzero;"/><path d="M1466.19,1137.89l-0,-20.259c-10.736,15.584 -25.324,23.375 -43.764,23.375c-8.138,0 -15.735,-1.558 -22.791,-4.675c-7.056,-3.116 -12.294,-7.034 -15.714,-11.752c-3.419,-4.719 -5.822,-10.498 -7.207,-17.337c-0.952,-4.589 -1.429,-11.861 -1.429,-21.817l0,-85.45l23.376,-0l-0,76.489c-0,12.207 0.476,20.432 1.428,24.674c1.472,6.147 4.589,10.974 9.35,14.48c4.762,3.506 10.649,5.26 17.662,5.26c7.013,-0 13.592,-1.797 19.739,-5.39c6.147,-3.593 10.497,-8.484 13.051,-14.674c2.554,-6.19 3.831,-15.173 3.831,-26.947l0,-73.892l23.376,-0l-0,137.915l-20.908,-0Z" style="fill-rule:nonzero;"/><path d="M1613.72,1120.88c-8.658,7.359 -16.991,12.553 -24.999,15.583c-8.008,3.03 -16.601,4.545 -25.778,4.545c-15.151,0 -26.795,-3.701 -34.933,-11.103c-8.138,-7.402 -12.207,-16.86 -12.207,-28.375c-0,-6.753 1.536,-12.921 4.61,-18.506c3.073,-5.584 7.099,-10.064 12.077,-13.44c4.978,-3.377 10.584,-5.931 16.817,-7.662c4.589,-1.212 11.515,-2.381 20.779,-3.507c18.873,-2.251 32.769,-4.935 41.686,-8.051c0.086,-3.204 0.13,-5.238 0.13,-6.104c-0,-9.523 -2.208,-16.233 -6.623,-20.129c-5.974,-5.281 -14.848,-7.921 -26.622,-7.921c-10.995,-0 -19.112,1.926 -24.35,5.779c-5.238,3.852 -9.112,10.67 -11.623,20.453l-22.856,-3.117c2.078,-9.783 5.498,-17.683 10.26,-23.7c4.761,-6.017 11.644,-10.649 20.648,-13.895c9.004,-3.247 19.436,-4.87 31.297,-4.87c11.774,-0 21.341,1.385 28.7,4.156c7.359,2.77 12.77,6.255 16.233,10.454c3.463,4.199 5.887,9.501 7.272,15.908c0.779,3.982 1.169,11.168 1.169,21.557l-0,31.167c-0,21.731 0.498,35.475 1.493,41.232c0.996,5.757 2.966,11.277 5.909,16.558l-24.414,-0c-2.424,-4.849 -3.983,-10.519 -4.675,-17.012Zm-1.948,-52.206c-8.485,3.463 -21.211,6.407 -38.18,8.831c-9.61,1.385 -16.406,2.944 -20.389,4.675c-3.982,1.732 -7.056,4.264 -9.22,7.597c-2.164,3.333 -3.247,7.035 -3.247,11.104c0,6.233 2.36,11.428 7.078,15.583c4.718,4.156 11.623,6.234 20.713,6.234c9.004,-0 17.012,-1.97 24.025,-5.909c7.013,-3.939 12.164,-9.329 15.454,-16.168c2.51,-5.281 3.766,-13.073 3.766,-23.376l-0,-8.571Z" style="fill-rule:nonzero;"/><path d="M1671.38,1137.89l0,-137.915l21.038,-0l0,20.908c5.368,-9.783 10.324,-16.233 14.869,-19.35c4.546,-3.117 9.545,-4.675 15,-4.675c7.878,-0 15.886,2.511 24.024,7.532l-8.051,21.687c-5.714,-3.376 -11.428,-5.064 -17.142,-5.064c-5.108,-0 -9.697,1.536 -13.766,4.61c-4.069,3.073 -6.969,7.337 -8.7,12.791c-2.598,8.312 -3.896,17.402 -3.896,27.272l-0,72.204l-23.376,-0Z" style="fill-rule:nonzero;"/><path d="M1854.61,1093.48l24.154,2.987c-3.809,14.112 -10.865,25.064 -21.168,32.856c-10.302,7.792 -23.462,11.687 -39.478,11.687c-20.172,0 -36.167,-6.211 -47.985,-18.635c-11.817,-12.424 -17.726,-29.847 -17.726,-52.27c0,-23.202 5.974,-41.21 17.921,-54.023c11.948,-12.813 27.445,-19.22 46.491,-19.22c18.441,-0 33.505,6.277 45.193,18.83c11.688,12.554 17.531,30.215 17.531,52.984c0,1.386 -0.043,3.463 -0.129,6.234l-102.852,-0c0.865,15.151 5.151,26.752 12.856,34.803c7.705,8.052 17.315,12.078 28.83,12.078c8.571,-0 15.886,-2.251 21.947,-6.753c6.06,-4.502 10.865,-11.688 14.415,-21.558Zm-76.75,-37.79l77.009,0c-1.039,-11.601 -3.982,-20.302 -8.83,-26.102c-7.446,-9.004 -17.099,-13.506 -28.96,-13.506c-10.735,-0 -19.761,3.593 -27.076,10.778c-7.316,7.186 -11.364,16.796 -12.143,28.83Z" style="fill-rule:nonzero;"/></svg>